<svg width="23" height="24" viewBox="0 0 23 24" fill="none" xmlns="http://www.w3.org/2000/svg">
<path d="M19.7252 10.962C20.1548 11.582 20.1548 12.419 19.7252 13.038C18.3718 14.987 15.1248 19 11.3339 19C7.54301 19 4.29601 14.987 2.94265 13.038C2.7336 12.7411 2.62012 12.3759 2.62012 12C2.62012 11.6241 2.7336 11.2589 2.94265 10.962C4.29601 9.013 7.54301 5 11.3339 5C15.1248 5 18.3718 9.013 19.7252 10.962V10.962Z" stroke="white" stroke-width="1.1" stroke-linecap="round" stroke-linejoin="round"/>
<path d="M11.3347 15C12.8366 15 14.0541 13.6569 14.0541 12C14.0541 10.3431 12.8366 9 11.3347 9C9.83276 9 8.61523 10.3431 8.61523 12C8.61523 13.6569 9.83276 15 11.3347 15Z" stroke="white" stroke-width="1.1" stroke-linecap="round" stroke-linejoin="round"/>
</svg>
